<?xml version="1.0" encoding="UTF-8"?>
<mxfile>
  <diagram id="swimlane" name="Swimlane Diagram">
    <mxGraphModel dx="1000" dy="1000" grid="1" gridSize="10" guides="1" tooltips="1" connect="1" arrows="1" fold="1" page="1" pageScale="1" pageWidth="827" pageHeight="1169" math="0" shadow="0">
      <root>
        <mxCell id="0"/>
        <mxCell id="1" parent="0"/>
        
        <!-- Swimlanes -->
        <mxCell id="2" value="Tour Operator" style="swimlane" vertex="1" parent="1">
          <mxGeometry x="0" y="0" width="200" height="800" as="geometry"/>
        </mxCell>
        <mxCell id="3" value="Tourist / Visitor" style="swimlane" vertex="1" parent="1">
          <mxGeometry x="200" y="0" width="200" height="800" as="geometry"/>
        </mxCell>
        <mxCell id="4" value="Finance Officer" style="swimlane" vertex="1" parent="1">
          <mxGeometry x="400" y="0" width="200" height="800" as="geometry"/>
        </mxCell>
        <mxCell id="5" value="Inspector" style="swimlane" vertex="1" parent="1">
          <mxGeometry x="600" y="0" width="200" height="800" as="geometry"/>
        </mxCell>
        
        <!-- Flowchart elements -->
        <mxCell id="6" value="Create Permit" style="rounded=1;whiteSpace=wrap;html=1;" vertex="1" parent="2">
          <mxGeometry x="20" y="40" width="160" height="60" as="geometry"/>
        </mxCell>
        <mxCell id="7" value="Amend PAID Permit (optional)" style="rounded=1;whiteSpace=wrap;html=1;" vertex="1" parent="3">
          <mxGeometry x="20" y="120" width="160" height="60" as="geometry"/>
        </mxCell>
        <mxCell id="8" value="Check In (Validate Permit / Reservation)" style="rounded=1;whiteSpace=wrap;html=1;" vertex="1" parent="3">
          <mxGeometry x="20" y="200" width="160" height="60" as="geometry"/>
        </mxCell>
        <mxCell id="9" value="Mini Checkout &amp; Check In (for Multiple Entry)" style="rounded=1;whiteSpace=wrap;html=1;" vertex="1" parent="4">
          <mxGeometry x="20" y="200" width="160" height="60" as="geometry"/>
        </mxCell>
        <mxCell id="10" value="Activities Addition (Add activities to the paid permit, update records)" style="rounded=1;whiteSpace=wrap;html=1;" vertex="1" parent="3">
          <mxGeometry x="20" y="280" width="160" height="60" as="geometry"/>
        </mxCell>
        <mxCell id="11" value="Entry Extension (Extend charges for Pax, Vehicle, Accommodation)" style="rounded=1;whiteSpace=wrap;html=1;" vertex="1" parent="3">
          <mxGeometry x="20" y="360" width="160" height="60" as="geometry"/>
        </mxCell>
        <mxCell id="12" value="Checkout (Verify Pax, vehicle, time, handle overstay charges / exemptions)" style="rounded=1;whiteSpace=wrap;html=1;" vertex="1" parent="3">
          <mxGeometry x="20" y="440" width="160" height="60" as="geometry"/>
        </mxCell>
        <mxCell id="13" value="Credit Note (Apply credit notes for entry, activities, transport, accommodation)" style="rounded=1;whiteSpace=wrap;html=1;" vertex="1" parent="4">
          <mxGeometry x="20" y="520" width="160" height="60" as="geometry"/>
        </mxCell>
        <mxCell id="14" value="Inspection / Penalties" style="rounded=1;whiteSpace=wrap;html=1;" vertex="1" parent="5">
          <mxGeometry x="20" y="600" width="160" height="60" as="geometry"/>
        </mxCell>
        
        <!-- Arrows -->
        <mxCell id="15" style="edgeStyle=orthogonalEdgeStyle;endArrow=block;html=1;" edge="1" parent="1" source="6" target="7">
          <mxGeometry relative="1" as="geometry"/>
        </mxCell>
        <mxCell id="16" style="edgeStyle=orthogonalEdgeStyle;endArrow=block;html=1;" edge="1" parent="1" source="7" target="8">
          <mxGeometry relative="1" as="geometry"/>
        </mxCell>
        <mxCell id="17" style="edgeStyle=orthogonalEdgeStyle;endArrow=block;html=1;" edge="1" parent="1" source="8" target="9">
          <mxGeometry relative="1" as="geometry"/>
        </mxCell>
        <mxCell id="18" style="edgeStyle=orthogonalEdgeStyle;endArrow=block;html=1;" edge="1" parent="1" source="8" target="10">
          <mxGeometry relative="1" as="geometry"/>
        </mxCell>
        <mxCell id="19" style="edgeStyle=orthogonalEdgeStyle;endArrow=block;html=1;" edge="1" parent="1" source="10" target="11">
          <mxGeometry relative="1" as="geometry"/>
        </mxCell>
        <mxCell id="20" style="edgeStyle=orthogonalEdgeStyle;endArrow=block;html=1;" edge="1" parent="1" source="11" target="12">
          <mxGeometry relative="1" as="geometry"/>
        </mxCell>
        <mxCell id="21" style="edgeStyle=orthogonalEdgeStyle;endArrow=block;html=1;" edge="1" parent="1" source="12" target="13">
          <mxGeometry relative="1" as="geometry"/>
        </mxCell>
        <mxCell id="22" style="edgeStyle=orthogonalEdgeStyle;endArrow=block;html=1;" edge="1" parent="1" source="13" target="14">
          <mxGeometry relative="1" as="geometry"/>
        </mxCell>
      </root>
    </mxGraphModel>
  </diagram>
</mxfile>
